<svg width="356" height="357" viewBox="0 0 356 357" fill="none" xmlns="http://www.w3.org/2000/svg">
<g filter="url(#filter0_dii_305_295)">
<mask id="mask0_305_295" style="mask-type:alpha" maskUnits="userSpaceOnUse" x="44" y="28" width="279" height="279">
<rect x="44" y="28" width="279" height="279" rx="61.5762" fill="#14272C"/>
</mask>
<g mask="url(#mask0_305_295)">
<rect x="44" y="28" width="279" height="279" rx="58.5787" fill="#1B1F23"/>
<g opacity="0.4" filter="url(#filter1_f_305_295)">
<path d="M315.099 91.2109C315.099 60.9678 296.48 51.5225 292.212 46.7998C295.3 53.9746 304.473 76.2256 304.473 91.2109L304.473 235.888C304.473 251.363 299.205 277.937 297.389 285.748C300.386 280.935 315.099 271.853 315.099 235.888L315.099 91.2109Z" fill="#1E1E1E"/>
</g>
<g opacity="0.8" filter="url(#filter2_f_305_295)">
<path d="M104.486 35.9014C89.6645 35.9014 76.5137 44.4385 71.791 48.707C78.9658 45.6191 90.0459 39.4434 104.486 39.4434H249.163C264.639 39.4434 284.129 43.0762 291.939 44.8926C287.126 41.8955 271.832 35.9014 249.163 35.9014H104.486Z" fill="#1E1E1E"/>
</g>
<path d="M183.625 136C206.062 136 224.25 130.404 224.25 123.5C224.25 116.596 206.062 111 183.625 111C161.188 111 143 116.596 143 123.5C143 130.404 161.188 136 183.625 136Z" stroke="white" stroke-width="4"/>
<path d="M224.25 123.5L214.875 211C214.875 216 202.375 223.5 183.625 223.5C164.875 223.5 152.375 216 152.375 211L143 123.5" stroke="white" stroke-width="4"/>
<rect x="44" y="28" width="279" height="279" rx="58.5787" fill="#1B1F23"/>
</g>
<mask id="mask1_305_295" style="mask-type:alpha" maskUnits="userSpaceOnUse" x="44" y="28" width="279" height="279">
<rect x="44" y="28" width="279" height="279" rx="61.5762" fill="#14272C"/>
</mask>
<g mask="url(#mask1_305_295)">
<g opacity="0.4" filter="url(#filter3_f_305_295)">
<path d="M315.099 91.2109C315.099 60.9678 296.48 51.5225 292.212 46.7998C295.3 53.9746 304.473 76.2256 304.473 91.2109L304.473 235.888C304.473 251.363 299.205 277.937 297.389 285.748C300.386 280.935 315.099 271.853 315.099 235.888L315.099 91.2109Z" fill="#1E1E1E"/>
</g>
<g opacity="0.8" filter="url(#filter4_f_305_295)">
<path d="M104.486 35.9014C89.6645 35.9014 76.5137 44.4385 71.791 48.707C78.9658 45.6191 90.0459 39.4434 104.486 39.4434H249.163C264.639 39.4434 284.129 43.0762 291.939 44.8926C287.126 41.8955 271.832 35.9014 249.163 35.9014H104.486Z" fill="#1E1E1E"/>
</g>
<g filter="url(#filter5_d_305_295)">
<path d="M148.014 104.972C131.385 132.734 98 204.433 98 204.433H148.014L198.027 104.972C205.257 94.9056 208.585 98.8725 214.477 105.894L214.658 106.11L208.909 94.8026C191.553 66.1484 164.642 77.209 148.014 104.972Z" fill="white"/>
<path d="M178.242 78.9512C183.682 77.6359 189.139 78.0689 194.311 80.6025C199.485 83.1375 204.391 87.7837 208.714 94.9199L213.562 104.455C212.515 103.222 211.539 102.114 210.595 101.208C209.332 99.9973 208.103 99.1247 206.809 98.8047C205.5 98.4812 204.158 98.7296 202.694 99.6914C201.239 100.648 199.656 102.314 197.843 104.839L197.832 104.854L197.824 104.869L147.873 204.206H98.3564C98.4156 204.079 98.4923 203.916 98.585 203.718C98.8335 203.186 99.2002 202.402 99.6729 201.395C100.618 199.38 101.987 196.471 103.682 192.894C107.071 185.739 111.764 175.909 116.976 165.213C127.401 143.816 139.899 118.959 148.208 105.088C156.507 91.2326 167.35 81.5847 178.242 78.9512Z" stroke="#43D9B8" stroke-width="0.454421"/>
</g>
<g filter="url(#filter6_d_305_295)">
<path d="M218.264 227.994C235.094 200.354 269 128.899 269 128.899L218.988 128.535L168.252 227.631C160.949 237.644 157.649 233.653 151.809 226.588L151.629 226.371L157.296 237.72C174.443 266.5 201.433 255.635 218.264 227.994Z" fill="white"/>
<path d="M187.847 253.794C182.397 255.07 176.944 254.597 171.791 252.026C166.635 249.453 161.762 244.772 157.492 237.604L152.714 228.034C153.751 229.275 154.719 230.39 155.657 231.303C156.911 232.522 158.134 233.404 159.426 233.733C160.732 234.066 162.076 233.828 163.546 232.877C165.008 231.931 166.603 230.276 168.435 227.765L168.446 227.75L168.454 227.734L219.127 128.764L268.642 129.124C268.582 129.25 268.504 129.413 268.41 129.611C268.157 130.141 267.785 130.922 267.305 131.926C266.345 133.933 264.955 136.833 263.234 140.397C259.793 147.528 255.029 157.322 249.739 167.981C239.159 189.301 226.48 214.066 218.07 227.877C209.671 241.671 198.758 251.24 187.847 253.794Z" stroke="#43D9B8" stroke-width="0.454421"/>
</g>
<g filter="url(#filter7_d_305_295)">
<path d="M148.014 104.972C131.385 132.734 98 204.433 98 204.433H148.014L198.027 104.972C205.257 94.9056 208.585 98.8725 214.477 105.894L214.658 106.11L208.909 94.8026C191.553 66.1484 164.642 77.209 148.014 104.972Z" fill="white"/>
<path d="M178.242 78.9512C183.682 77.6359 189.139 78.0689 194.311 80.6025C199.485 83.1375 204.391 87.7837 208.714 94.9199L213.562 104.455C212.515 103.222 211.539 102.114 210.595 101.208C209.332 99.9973 208.103 99.1247 206.809 98.8047C205.5 98.4812 204.158 98.7296 202.694 99.6914C201.239 100.648 199.656 102.314 197.843 104.839L197.832 104.854L197.824 104.869L147.873 204.206H98.3564C98.4156 204.079 98.4923 203.916 98.585 203.718C98.8335 203.186 99.2002 202.402 99.6729 201.395C100.618 199.38 101.987 196.471 103.682 192.894C107.071 185.739 111.764 175.909 116.976 165.213C127.401 143.816 139.899 118.959 148.208 105.088C156.507 91.2326 167.35 81.5847 178.242 78.9512Z" stroke="#43D9B8" stroke-width="0.454421"/>
</g>
<g filter="url(#filter8_d_305_295)">
<path d="M218.264 227.994C235.094 200.354 269 128.899 269 128.899L218.988 128.535L168.252 227.631C160.949 237.644 157.649 233.653 151.809 226.588L151.629 226.371L157.296 237.72C174.443 266.5 201.433 255.635 218.264 227.994Z" fill="white"/>
<path d="M187.847 253.794C182.397 255.07 176.944 254.597 171.791 252.026C166.635 249.453 161.762 244.772 157.492 237.604L152.714 228.034C153.751 229.275 154.719 230.39 155.657 231.303C156.911 232.522 158.134 233.404 159.426 233.733C160.732 234.066 162.076 233.828 163.546 232.877C165.008 231.931 166.603 230.276 168.435 227.765L168.446 227.75L168.454 227.734L219.127 128.764L268.642 129.124C268.582 129.25 268.504 129.413 268.41 129.611C268.157 130.141 267.785 130.922 267.305 131.926C266.345 133.933 264.955 136.833 263.234 140.397C259.793 147.528 255.029 157.322 249.739 167.981C239.159 189.301 226.48 214.066 218.07 227.877C209.671 241.671 198.758 251.24 187.847 253.794Z" stroke="#43D9B8" stroke-width="0.454421"/>
</g>
</g>
</g>
<defs>
<filter id="filter0_dii_305_295" x="0.40625" y="0.753906" width="355.289" height="355.289" filterUnits="userSpaceOnUse" color-interpolation-filters="sRGB">
<feFlood flood-opacity="0" result="BackgroundImageFix"/>
<feColorMatrix in="SourceAlpha" type="matrix" values="0 0 0 0 0 0 0 0 0 0 0 0 0 0 0 0 0 0 127 0" result="hardAlpha"/>
<feOffset dx="-5.44922" dy="10.8984"/>
<feGaussianBlur stdDeviation="19.0723"/>
<feComposite in2="hardAlpha" operator="out"/>
<feColorMatrix type="matrix" values="0 0 0 0 0.0904167 0 0 0 0 0.105917 0 0 0 0 0.129167 0 0 0 1 0"/>
<feBlend mode="normal" in2="BackgroundImageFix" result="effect1_dropShadow_305_295"/>
<feBlend mode="normal" in="SourceGraphic" in2="effect1_dropShadow_305_295" result="shape"/>
<feColorMatrix in="SourceAlpha" type="matrix" values="0 0 0 0 0 0 0 0 0 0 0 0 0 0 0 0 0 0 127 0" result="hardAlpha"/>
<feOffset dx="10.8984" dy="-10.8984"/>
<feGaussianBlur stdDeviation="8.17383"/>
<feComposite in2="hardAlpha" operator="arithmetic" k2="-1" k3="1"/>
<feColorMatrix type="matrix" values="0 0 0 0 0.003125 0 0 0 0 0.0666233 0 0 0 0 0.0833333 0 0 0 0.7 0"/>
<feBlend mode="normal" in2="shape" result="effect2_innerShadow_305_295"/>
<feColorMatrix in="SourceAlpha" type="matrix" values="0 0 0 0 0 0 0 0 0 0 0 0 0 0 0 0 0 0 127 0" result="hardAlpha"/>
<feOffset dx="-5.44922" dy="5.44922"/>
<feGaussianBlur stdDeviation="5.44922"/>
<feComposite in2="hardAlpha" operator="arithmetic" k2="-1" k3="1"/>
<feColorMatrix type="matrix" values="0 0 0 0 0 0 0 0 0 0.0692708 0 0 0 0 0.0875 0 0 0 0.9 0"/>
<feBlend mode="normal" in2="effect2_innerShadow_305_295" result="effect3_innerShadow_305_295"/>
</filter>
<filter id="filter1_f_305_295" x="287.308" y="41.8955" width="32.6953" height="248.757" filterUnits="userSpaceOnUse" color-interpolation-filters="sRGB">
<feFlood flood-opacity="0" result="BackgroundImageFix"/>
<feBlend mode="normal" in="SourceGraphic" in2="BackgroundImageFix" result="shape"/>
<feGaussianBlur stdDeviation="2.45215" result="effect1_foregroundBlur_305_295"/>
</filter>
<filter id="filter2_f_305_295" x="67.9766" y="32.0869" width="227.777" height="20.4346" filterUnits="userSpaceOnUse" color-interpolation-filters="sRGB">
<feFlood flood-opacity="0" result="BackgroundImageFix"/>
<feBlend mode="normal" in="SourceGraphic" in2="BackgroundImageFix" result="shape"/>
<feGaussianBlur stdDeviation="1.90723" result="effect1_foregroundBlur_305_295"/>
</filter>
<filter id="filter3_f_305_295" x="287.308" y="41.8955" width="32.6953" height="248.757" filterUnits="userSpaceOnUse" color-interpolation-filters="sRGB">
<feFlood flood-opacity="0" result="BackgroundImageFix"/>
<feBlend mode="normal" in="SourceGraphic" in2="BackgroundImageFix" result="shape"/>
<feGaussianBlur stdDeviation="2.45215" result="effect1_foregroundBlur_305_295"/>
</filter>
<filter id="filter4_f_305_295" x="67.9766" y="32.0869" width="227.777" height="20.4346" filterUnits="userSpaceOnUse" color-interpolation-filters="sRGB">
<feFlood flood-opacity="0" result="BackgroundImageFix"/>
<feBlend mode="normal" in="SourceGraphic" in2="BackgroundImageFix" result="shape"/>
<feGaussianBlur stdDeviation="1.90723" result="effect1_foregroundBlur_305_295"/>
</filter>
<filter id="filter5_d_305_295" x="96.1823" y="78" width="120.294" height="132.795" filterUnits="userSpaceOnUse" color-interpolation-filters="sRGB">
<feFlood flood-opacity="0" result="BackgroundImageFix"/>
<feColorMatrix in="SourceAlpha" type="matrix" values="0 0 0 0 0 0 0 0 0 0 0 0 0 0 0 0 0 0 127 0" result="hardAlpha"/>
<feOffset dy="4.54421"/>
<feGaussianBlur stdDeviation="0.908843"/>
<feComposite in2="hardAlpha" operator="out"/>
<feColorMatrix type="matrix" values="0 0 0 0 0 0 0 0 0 0 0 0 0 0 0 0 0 0 0.25 0"/>
<feBlend mode="normal" in2="BackgroundImageFix" result="effect1_dropShadow_305_295"/>
<feBlend mode="normal" in="SourceGraphic" in2="effect1_dropShadow_305_295" result="shape"/>
</filter>
<filter id="filter6_d_305_295" x="149.811" y="128.535" width="121.006" height="132.529" filterUnits="userSpaceOnUse" color-interpolation-filters="sRGB">
<feFlood flood-opacity="0" result="BackgroundImageFix"/>
<feColorMatrix in="SourceAlpha" type="matrix" values="0 0 0 0 0 0 0 0 0 0 0 0 0 0 0 0 0 0 127 0" result="hardAlpha"/>
<feOffset dy="4.54421"/>
<feGaussianBlur stdDeviation="0.908843"/>
<feComposite in2="hardAlpha" operator="out"/>
<feColorMatrix type="matrix" values="0 0 0 0 0 0 0 0 0 0 0 0 0 0 0 0 0 0 0.25 0"/>
<feBlend mode="normal" in2="BackgroundImageFix" result="effect1_dropShadow_305_295"/>
<feBlend mode="normal" in="SourceGraphic" in2="effect1_dropShadow_305_295" result="shape"/>
</filter>
<filter id="filter7_d_305_295" x="96.1823" y="78" width="120.294" height="132.795" filterUnits="userSpaceOnUse" color-interpolation-filters="sRGB">
<feFlood flood-opacity="0" result="BackgroundImageFix"/>
<feColorMatrix in="SourceAlpha" type="matrix" values="0 0 0 0 0 0 0 0 0 0 0 0 0 0 0 0 0 0 127 0" result="hardAlpha"/>
<feOffset dy="4.54421"/>
<feGaussianBlur stdDeviation="0.908843"/>
<feComposite in2="hardAlpha" operator="out"/>
<feColorMatrix type="matrix" values="0 0 0 0 0 0 0 0 0 0 0 0 0 0 0 0 0 0 0.25 0"/>
<feBlend mode="normal" in2="BackgroundImageFix" result="effect1_dropShadow_305_295"/>
<feBlend mode="normal" in="SourceGraphic" in2="effect1_dropShadow_305_295" result="shape"/>
</filter>
<filter id="filter8_d_305_295" x="149.811" y="128.535" width="121.006" height="132.529" filterUnits="userSpaceOnUse" color-interpolation-filters="sRGB">
<feFlood flood-opacity="0" result="BackgroundImageFix"/>
<feColorMatrix in="SourceAlpha" type="matrix" values="0 0 0 0 0 0 0 0 0 0 0 0 0 0 0 0 0 0 127 0" result="hardAlpha"/>
<feOffset dy="4.54421"/>
<feGaussianBlur stdDeviation="0.908843"/>
<feComposite in2="hardAlpha" operator="out"/>
<feColorMatrix type="matrix" values="0 0 0 0 0 0 0 0 0 0 0 0 0 0 0 0 0 0 0.25 0"/>
<feBlend mode="normal" in2="BackgroundImageFix" result="effect1_dropShadow_305_295"/>
<feBlend mode="normal" in="SourceGraphic" in2="effect1_dropShadow_305_295" result="shape"/>
</filter>
</defs>
</svg>
